# xmcd CD database file
#
# Track frame offsets:
#	150
#	12022
#	27622
#	37837
#	53277
#	65725
#	80585
#	90302
#	103935
#	122297
#
# Disc length: 1918 seconds
#
# Revision: 0
# Processed by: cddbd v1.5.1PL0 Copyright (c) Steve Scherf et al.
# Submitted via: CDex 1.60beta1
#
DISCID=6e077c0a
DTITLE=Various Artist - Super Blues Legends, Vol. 2
DYEAR=1998
DGENRE=Blues
TTITLE0=Charles Brown - Trouble Blues
TTITLE1=Memphis Slim - Born With the Blues
TTITLE2=Little Joe Blue - Encourage Me Baby
TTITLE3=Elmore James - Dust My Broom
TTITLE4=Eddie Giles - Losing Boy
TTITLE5=Bobby Rush - She's a Good 'Un
TTITLE6=Clarence Carter - Slip Away Again
TTITLE7=Artie "Blues Boy" White - Jimmie
TTITLE8=Buster Benton - Lonesome for a Dime
TTITLE9=Unknown Artist - Track 10
EXTD=YEAR: 1998
EXTT0=
EXTT1=
EXTT2=
EXTT3=
EXTT4=
EXTT5=
EXTT6=
EXTT7=
EXTT8=
EXTT9=
PLAYORDER=
